<svg width="23" height="25" viewBox="0 0 23 25" fill="none" xmlns="http://www.w3.org/2000/svg">
<circle cx="10.5" cy="10.5" r="10.5" fill="white" fill-opacity="0.2"/>
<path d="M10.5 0C11.8792 1.64463e-08 13.2448 0.2717 14.5189 0.799581C15.7931 1.32746 16.9507 2.10118 17.9258 3.07655C18.9008 4.05191 19.6742 5.20981 20.2017 6.48411C20.7292 7.75841 21.0004 9.12414 21 10.5033C20.9996 11.8825 20.7274 13.248 20.1992 14.522C19.6709 15.796 18.8968 16.9534 17.9211 17.9281C16.9454 18.9029 15.7873 19.6759 14.5128 20.2029C13.2384 20.73 11.8726 21.0009 10.4934 21L10.5 10.5V0Z" fill="#22BC09"/>
<path d="M22.1244 17.5C20.8956 19.6283 19.1283 21.3956 17 22.6244C14.8717 23.8531 12.4575 24.5 9.99999 24.5L10 10.5L22.1244 17.5Z" fill="#4FB7DD"/>
</svg>
