<svg width="24" height="25" viewBox="0 0 24 25" fill="none" xmlns="http://www.w3.org/2000/svg">
<circle cx="13.5" cy="10.5" r="10.5" fill="white" fill-opacity="0.2"/>
<path d="M13.5 0C15.3435 2.19836e-08 17.1545 0.485362 18.751 1.40728C20.3474 2.32921 21.6729 3.65519 22.5944 5.25191C23.5158 6.84862 24.0006 8.65979 24 10.5033C23.9994 12.3468 23.5135 14.1577 22.5911 15.7538C21.6686 17.35 20.3422 18.6751 18.7452 19.596C17.1482 20.5169 15.3369 21.0012 13.4934 21C11.6499 20.9988 9.83918 20.5123 8.24333 19.5894C6.64748 18.6665 5.32275 17.3397 4.40233 15.7424L13.5 10.5V0Z" fill="#22BC09"/>
<path d="M13 24.5C10.5425 24.5 8.12827 23.8531 6 22.6244C3.87173 21.3956 2.1044 19.6283 0.875645 17.5L13 10.5L13 24.5Z" fill="#4FB7DD"/>
</svg>
