<svg width="25" height="21" viewBox="0 0 25 21" fill="none" xmlns="http://www.w3.org/2000/svg">
<circle cx="14.5" cy="10.5" r="10.5" fill="white" fill-opacity="0.2"/>
<path d="M14.5 0C16.8119 2.75689e-08 19.0591 0.763003 20.8931 2.17063C22.727 3.57825 24.0452 5.55179 24.6429 7.78506C25.2407 10.0183 25.0847 12.3864 24.1992 14.522C23.3136 16.6575 21.748 18.4411 19.7452 19.596C17.7425 20.7509 15.4146 21.2125 13.1227 20.9093C10.8308 20.606 8.70301 19.5548 7.06955 17.9188C5.43609 16.2828 4.38824 14.1534 4.08858 11.861C3.78892 9.56861 4.2542 7.24142 5.41224 5.24048L14.5 10.5V0Z" fill="#22BC09"/>
<path d="M1.87564 17.5C0.646886 15.3717 -1.38668e-06 12.9575 0 10.5C1.38668e-06 8.04248 0.646892 5.62826 1.87565 3.49999L14 10.5L1.87564 17.5Z" fill="#4FB7DD"/>
</svg>
