<svg width="106" height="24" viewBox="0 0 106 24" fill="none" xmlns="http://www.w3.org/2000/svg">
<g clip-path="url(#clip0_1387_39192)">
<path d="M57.0109 18.5443C56.9335 18.5443 56.8595 18.5136 56.8049 18.4588C56.7503 18.4041 56.7198 18.3298 56.7198 18.2524V11.3837C56.7198 9.65081 55.7986 9.04824 54.4173 9.04824C53.5297 9.09239 52.6563 9.28827 51.8345 9.62745C51.7692 9.65013 51.714 9.6956 51.6791 9.75557C51.6441 9.81557 51.6319 9.88611 51.6445 9.95441C51.7208 10.365 51.755 10.7824 51.7461 11.2V18.2539C51.7461 18.3314 51.7154 18.4056 51.6608 18.4604C51.6062 18.5151 51.5322 18.5459 51.4551 18.5459H49.0663C48.9892 18.5459 48.9152 18.5151 48.8606 18.4604C48.806 18.4056 48.7753 18.3314 48.7753 18.2539V11.3837C48.7753 9.65081 47.8317 9.04824 46.4728 9.04824C45.6207 9.08398 44.7815 9.27084 43.9941 9.6002C43.9381 9.62107 43.8898 9.65854 43.8556 9.70763C43.8214 9.75672 43.8029 9.8151 43.8025 9.87501V18.2531C43.8025 18.3306 43.7719 18.4048 43.7173 18.4596C43.6627 18.5143 43.5887 18.5451 43.5115 18.5451H41.0995C41.0223 18.5451 40.9483 18.5143 40.8937 18.4596C40.8391 18.4048 40.8084 18.3306 40.8084 18.2531V7.1713C40.8084 7.09387 40.8391 7.01961 40.8937 6.96487C40.9483 6.91012 41.0223 6.87936 41.0995 6.87936H43.0816C43.1529 6.87948 43.2219 6.90597 43.2751 6.95378C43.3283 7.00158 43.3621 7.06738 43.3703 7.1386C43.375 7.18252 43.3897 7.22476 43.413 7.26217C43.4365 7.29958 43.468 7.33115 43.5055 7.35455C43.5428 7.37793 43.585 7.39251 43.6289 7.39716C43.6726 7.40183 43.7169 7.39648 43.7583 7.38149C44.9713 6.89628 46.2564 6.6174 47.5609 6.55629C48.6589 6.50278 49.7348 6.87839 50.5626 7.60414C50.6015 7.64262 50.6502 7.66937 50.7034 7.68134C50.7567 7.69331 50.8122 7.69004 50.8637 7.67188C52.3468 7.04519 53.9229 6.66851 55.5286 6.55707C56.1326 6.52758 56.7356 6.63003 57.2962 6.85733C57.8569 7.08462 58.3616 7.43134 58.7754 7.8735C59.4985 8.82252 59.8358 10.0113 59.7192 11.2V18.2539C59.7192 18.3314 59.6885 18.4056 59.6339 18.4604C59.5793 18.5151 59.5053 18.5459 59.4282 18.5459L57.0109 18.5443Z" fill="white"/>
<path d="M70.3036 18.2849V18.2795C70.2986 18.2363 70.284 18.1948 70.2609 18.158C70.238 18.1212 70.2071 18.0899 70.1704 18.0666C70.1338 18.0433 70.0927 18.0284 70.0495 18.0231C70.0066 18.0178 69.9629 18.0221 69.9219 18.0358C68.6712 18.5295 67.3472 18.8108 66.0042 18.868C65.0043 18.9127 64.0246 18.5743 63.264 17.9214C62.8809 17.5736 62.5806 17.1439 62.3853 16.6641C62.1901 16.1843 62.1048 15.6665 62.1357 15.1492C62.0996 14.5272 62.2377 13.9075 62.5349 13.3604C62.832 12.8132 63.2761 12.3606 63.8167 12.0539C64.77 11.5978 65.8255 11.3987 66.8788 11.4762C67.6845 11.4762 68.8361 11.5455 69.8722 11.6381V11.2489C69.8722 9.49341 69.1349 8.80054 66.6943 8.80054C65.7824 8.80054 64.7766 8.8566 63.8121 8.95235C63.7716 8.95649 63.7309 8.95209 63.6924 8.9394C63.6537 8.92673 63.6184 8.90608 63.5883 8.87877C63.5581 8.85146 63.5343 8.81813 63.5177 8.78091C63.5014 8.7437 63.4929 8.70344 63.4931 8.66274V7.03103C63.4931 6.95817 63.5203 6.88794 63.5692 6.8341C63.6182 6.78026 63.6854 6.74666 63.7577 6.73987C64.9155 6.63555 66.0912 6.55615 67.2499 6.55615C68.9307 6.55615 70.5659 6.74065 71.6245 7.66473C72.7295 8.61137 72.8661 9.90522 72.8661 11.5455V18.253C72.8661 18.3304 72.8354 18.4047 72.7808 18.4594C72.7264 18.5142 72.6524 18.5449 72.5751 18.5449H70.5931C70.5214 18.545 70.4522 18.5185 70.3988 18.4705C70.3454 18.4225 70.3114 18.3564 70.3036 18.2849ZM69.8722 13.8164C69.8723 13.7445 69.8459 13.6751 69.7981 13.6216C69.7502 13.5681 69.6843 13.5343 69.613 13.5268C68.8757 13.4528 68.0019 13.4162 67.3857 13.4162C65.659 13.4162 65.0366 14.0172 65.0366 15.0565C65.0311 15.2976 65.0779 15.5371 65.1739 15.7583C65.2699 15.9794 65.4125 16.1771 65.5922 16.3375C65.7717 16.4978 65.9838 16.6172 66.214 16.6871C66.444 16.7571 66.6865 16.7761 66.9247 16.7427C67.8574 16.6987 68.7796 16.5252 69.6649 16.2274C69.7249 16.2094 69.7773 16.1725 69.8148 16.1221C69.8521 16.0718 69.8722 16.0107 69.8722 15.9479V13.8164Z" fill="white"/>
<path d="M85.0168 17.7364C83.9048 18.5502 82.5452 18.9504 81.1714 18.8684C80.0059 18.8651 78.8537 18.6213 77.7862 18.1521L77.7172 18.5414H75.8431C75.7658 18.5414 75.6917 18.5106 75.6372 18.4559C75.5828 18.4011 75.5521 18.3269 75.5521 18.2495V2.25142C75.5521 2.17398 75.5828 2.09972 75.6372 2.04498C75.6917 1.99023 75.7658 1.95947 75.8431 1.95947H78.255C78.3321 1.95947 78.4061 1.99023 78.4607 2.04498C78.5153 2.09972 78.546 2.17398 78.546 2.25142V6.96363C78.546 7.00943 78.5567 7.05461 78.5773 7.09547C78.5978 7.13634 78.6278 7.17175 78.6647 7.19883C78.7014 7.2259 78.7441 7.24389 78.7892 7.25131C78.8343 7.25874 78.8803 7.25539 78.9238 7.24155C80.0013 6.84736 81.1311 6.61621 82.2764 6.55571C82.8734 6.53282 83.4688 6.63137 84.027 6.84543C84.5849 7.05949 85.0939 7.38464 85.5234 7.8013C86.6051 8.91066 87.0205 10.5502 87.0205 12.6988C87.0197 14.9876 86.2374 16.7656 85.0168 17.7364ZM81.2403 9.04843C80.3816 9.09369 79.536 9.28044 78.7377 9.60117C78.6816 9.62179 78.6332 9.65922 78.599 9.70837C78.5648 9.75754 78.5466 9.81605 78.5468 9.87599V15.9186C78.5464 15.9772 78.5637 16.0344 78.5961 16.083C78.6287 16.1316 78.675 16.1693 78.7292 16.1911C79.353 16.4402 80.0172 16.5722 80.6886 16.5804C82.8073 16.5804 83.9356 15.4251 83.9356 12.7922C83.9341 10.1827 82.9439 9.04843 81.2403 9.04843Z" fill="white"/>
<path d="M89.3354 18.2533V2.25142C89.3354 2.17398 89.3659 2.09972 89.4205 2.04498C89.4751 1.99023 89.5491 1.95947 89.6265 1.95947H92.0383C92.1155 1.95947 92.1895 1.99023 92.2441 2.04498C92.2987 2.09972 92.3294 2.17398 92.3294 2.25142V18.2533C92.3294 18.3308 92.2987 18.405 92.2441 18.4598C92.1895 18.5145 92.1155 18.5453 92.0383 18.5453H89.6265C89.5491 18.5453 89.4751 18.5145 89.4205 18.4598C89.3659 18.405 89.3354 18.3308 89.3354 18.2533Z" fill="white"/>
<path d="M100.109 18.8682C99.4183 18.9105 98.7259 18.8138 98.073 18.5837C97.4198 18.3536 96.8193 17.9948 96.3066 17.5284C95.2007 16.3731 94.787 14.6869 94.787 12.7017C94.787 10.8334 95.2473 8.95951 96.537 7.80424C97.6788 7.00049 99.0379 6.56546 100.433 6.55725C101.827 6.54905 103.191 6.96806 104.342 7.7583C105.759 8.97898 105.899 10.6901 105.908 13.0762C105.908 13.1539 105.877 13.2285 105.823 13.2837C105.768 13.3388 105.694 13.3701 105.617 13.3705H98.1334C98.0934 13.3701 98.0539 13.3781 98.0172 13.3939C97.9805 13.4097 97.9475 13.433 97.9201 13.4623C97.8929 13.4915 97.8719 13.5262 97.8587 13.564C97.8455 13.6018 97.84 13.6419 97.8431 13.6819C97.9984 15.6437 99.0072 16.5849 100.981 16.5849C102.376 16.538 103.764 16.3534 105.122 16.0337C105.165 16.0249 105.208 16.0257 105.25 16.0359C105.292 16.0462 105.331 16.0656 105.365 16.0929C105.398 16.1201 105.425 16.1546 105.444 16.1936C105.463 16.2326 105.472 16.2753 105.472 16.3186V17.8756C105.473 17.9422 105.45 18.0069 105.408 18.0588C105.367 18.1107 105.308 18.1466 105.244 18.1605C103.561 18.5728 101.84 18.8099 100.109 18.8682ZM100.363 8.47374C98.6556 8.47374 98.024 9.49045 97.8571 11.1035C97.8525 11.1444 97.8563 11.1859 97.8688 11.2252C97.881 11.2645 97.9014 11.3007 97.9286 11.3316C97.956 11.3624 97.9894 11.3871 98.0267 11.4042C98.0642 11.4212 98.1046 11.4302 98.1458 11.4305H102.61C102.65 11.4308 102.69 11.4228 102.727 11.407C102.763 11.3912 102.796 11.3679 102.824 11.3387C102.851 11.3094 102.872 11.2748 102.885 11.237C102.899 11.1992 102.904 11.159 102.901 11.1191C102.776 9.34643 102.085 8.47374 100.36 8.47374H100.363Z" fill="white"/>
<path d="M20.0725 16.002C20.6376 16.002 21.1899 16.1701 21.6599 16.485C22.1298 16.8 22.496 17.2477 22.7122 17.7714C22.9285 18.2952 22.9852 18.8715 22.8749 19.4276C22.7647 19.9835 22.4925 20.4943 22.0929 20.8953C21.6933 21.2961 21.1841 21.5692 20.6299 21.6797C20.0756 21.7903 19.5009 21.7335 18.9789 21.5166C18.4568 21.2996 18.0105 20.9323 17.6966 20.4608C17.3826 19.9895 17.215 19.4353 17.215 18.8684C17.215 18.1082 17.5161 17.3791 18.0519 16.8415C18.5878 16.304 19.3146 16.002 20.0725 16.002Z" fill="#4FB7DD"/>
<path d="M26.6408 0.433532L15.3696 8.29243L3.69475 0.541742C3.2231 0.22517 2.64914 0.100223 2.08911 0.192199C1.74959 0.241021 1.42516 0.36507 1.13938 0.555339C0.8536 0.745606 0.613639 0.997321 0.436914 1.29221C0.210347 1.65824 0.0902019 2.08048 0.0900214 2.51133L1.78471e-07 21.0036C-0.000165418 21.4215 0.11491 21.8315 0.332497 22.1879C0.550085 22.5441 0.861704 22.8331 1.23288 23.0229C1.60406 23.2127 2.02032 23.2958 2.43564 23.2629C2.85095 23.2302 3.24913 23.0827 3.58611 22.837L21.6408 10.6147C21.9742 10.3907 22.3618 10.2612 22.7626 10.2398C23.1633 10.2184 23.5624 10.3059 23.9177 10.4931C24.273 10.6803 24.5714 10.9602 24.7814 11.3033C24.9912 11.6464 25.1049 12.04 25.1105 12.4426L25.1927 20.2695C25.1927 20.3778 25.1927 20.7904 25.1927 20.8924C25.1933 21.5255 25.4363 22.1339 25.8717 22.5924C26.3068 23.0508 26.9009 23.3241 27.5311 23.3554C28.1616 23.3869 28.7797 23.1744 29.2582 22.7615C29.7365 22.3488 30.0386 21.7674 30.1019 21.1375C30.1225 21.0125 30.1332 20.886 30.1338 20.7593L30.2276 2.26377C30.2274 1.84599 30.112 1.43643 29.8941 1.08037C29.6763 0.724311 29.3645 0.435617 28.9932 0.246205C28.622 0.0567951 28.2058 -0.0259546 27.7907 0.00710482C27.3755 0.0401644 26.9777 0.187745 26.6408 0.433532Z" fill="#4FB7DD"/>
</g>
<defs>
<clipPath id="clip0_1387_39192">
<rect width="105.917" height="23.3585" fill="white"/>
</clipPath>
</defs>
</svg>
